<?xml version="1.0" encoding="UTF-8" standalone="no"?>
<!DOCTYPE svg PUBLIC "-//W3C//DTD SVG 1.1//EN" "http://www.w3.org/Graphics/SVG/1.1/DTD/svg11.dtd">
<!-- Created with Vectornator (http://vectornator.io/) -->
<svg height="100%" stroke-miterlimit="10" style="fill-rule:nonzero;clip-rule:evenodd;stroke-linecap:round;stroke-linejoin:round;" version="1.1" viewBox="0 0 419.58 297.675" width="100%" xml:space="preserve" xmlns="http://www.w3.org/2000/svg" xmlns:vectornator="http://vectornator.io" xmlns:xlink="http://www.w3.org/1999/xlink">
<defs/>
<clipPath id="ArtboardFrame">
<rect height="297.675" width="419.58" x="0" y="0"/>
</clipPath>
<g clip-path="url(#ArtboardFrame)" id="Layer-4" vectornator:layerName="Layer 4">
<path d="M305.877 34.8431C304.909 41.5345 306.254 48.3916 305.643 55.125C304.474 67.9997 299.309 63.2366 303.822 76.0637C309.297 91.6218 336.195 88.7844 333.959 110.741C329.171 157.75 276.624 187.665 309.328 238.324C335.743 279.241 389.607 278.634 412.684 234.538C417.398 225.529 421.13 215.257 420.67 205.1C418.814 164.148 374.41 146.232 363.331 109.304C356.868 87.7628 379.773 81.9992 384.81 63.7464C387.652 53.4499 380.214 53.9575 375.763 43.7413C373.33 38.1551 372.933 31.8879 371.518 25.9612C365.269 29.5103 362.487 34.2067 355.6 36.259C352.069 37.3112 345.628 36.7254 341.968 37.1417C335.553 37.8711 330.154 39.7521 323.72 40.2801C321.411 40.4696 317.671 38.6472 315.444 37.6288C313.218 36.6104 309.585 35.5078 305.877 34.8431Z" fill="none" opacity="1" stroke="#000000" stroke-linecap="round" stroke-linejoin="round" stroke-width="2.65523"/>
</g>
</svg>
