<?xml version="1.0" encoding="UTF-8" standalone="no"?>
<!DOCTYPE svg PUBLIC "-//W3C//DTD SVG 1.1//EN" "http://www.w3.org/Graphics/SVG/1.1/DTD/svg11.dtd">
<!-- Created with Vectornator (http://vectornator.io/) -->
<svg height="100%" stroke-miterlimit="10" style="fill-rule:nonzero;clip-rule:evenodd;stroke-linecap:round;stroke-linejoin:round;" version="1.1" viewBox="0 0 419.58 297.675" width="100%" xml:space="preserve" xmlns="http://www.w3.org/2000/svg" xmlns:vectornator="http://vectornator.io" xmlns:xlink="http://www.w3.org/1999/xlink">
<defs/>
<g id="Layer-3" vectornator:layerName="Layer 3">
<path d="M166.846 103.928C164.614 116.668 165.507 114.956 160.016 128.655C153.015 146.124 145.168 163.252 138.41 180.816C124.395 217.237 120.555 265.85 167.152 275.613C175.39 277.339 183.942 278.338 192.327 277.595C206.549 276.334 222.836 275.752 233.694 266.48C254.285 248.898 255.31 237.245 257.591 210.669C258.949 194.839 250.484 182.443 242.788 168.286C233.828 151.803 220.343 138.002 211.819 121.29C201.814 101.677 211.887 95.7096 223.349 79.7478C226.022 76.0253 227.118 71.139 230.409 67.9504C232.164 66.251 235.363 67.2599 237.487 66.0534C252.112 57.745 242.529 43.8343 234.691 34.5253C228.905 27.6535 221.248 25.0305 213.088 29.4931C210.034 31.1631 208.409 35.5369 204.967 36.0571C199.012 36.9572 193.109 33.712 187.093 33.4223C182.344 33.1935 177.595 35.0464 172.87 34.5109C165.691 33.6972 157.31 22.0798 148.64 27.9964C133.852 38.088 118.133 61.7174 145.213 65.4199C147.005 81.9607 151.029 88.9237 166.846 103.928Z" fill="none" opacity="1" stroke="#000000" stroke-linecap="round" stroke-linejoin="round" stroke-width="2.65523"/>
</g>
</svg>
