<?xml version="1.0" encoding="UTF-8" standalone="no"?>
<!DOCTYPE svg PUBLIC "-//W3C//DTD SVG 1.1//EN" "http://www.w3.org/Graphics/SVG/1.1/DTD/svg11.dtd">
<!-- Created with Vectornator (http://vectornator.io/) -->
<svg height="100%" stroke-miterlimit="10" style="fill-rule:nonzero;clip-rule:evenodd;stroke-linecap:round;stroke-linejoin:round;" version="1.1" viewBox="0 0 2181 1459" width="100%" xml:space="preserve" xmlns="http://www.w3.org/2000/svg" xmlns:vectornator="http://vectornator.io" xmlns:xlink="http://www.w3.org/1999/xlink">
<defs/>
<g id="Layer-3" vectornator:layerName="Layer 3">
<path d="M43.9804 478.518C45.1807 496.322 48.9098 514.136 47.5813 531.931C45.0035 566.462 37.4085 600.433 32.3221 634.683C113.638 651.155 197.815 657.11 276.271 684.098C307.498 694.839 334.768 718.612 354.116 745.373C370.588 768.158 374.224 798.278 378.867 826.008C383.314 852.566 383.258 879.915 381.139 906.76C379.628 925.896 372.423 944.149 368.064 962.843C402.719 942.333 438.327 918.779 478.211 913.218C506.58 909.262 535.411 907.809 564.033 908.909C573.164 909.26 582.186 912.88 590.059 917.518C604.839 926.225 619.22 936.165 631.176 948.465C644.093 961.755 658.463 975.714 663.859 993.445C674.425 1028.17 673.105 1065.44 677.729 1101.44C722.363 1073.26 763.639 1038.87 811.633 1016.9C831.926 1007.61 856.516 1004.35 878.196 1009.66C896.952 1014.24 911.067 1030.6 924.479 1044.49C943.613 1064.3 961.095 1086.11 974.988 1109.89C998.664 1150.43 1016.09 1194.31 1036.64 1236.51C1074.59 1193.27 1106.5 1143.87 1150.48 1106.78C1173.2 1087.62 1203.71 1079.37 1232.36 1071.45C1248.02 1067.13 1265.29 1066.93 1281.1 1070.7C1301.13 1075.49 1320.73 1084.19 1337.24 1096.5C1366.35 1118.22 1389.93 1146.51 1416.27 1171.52C1415.39 1163.67 1411.29 1155.52 1413.62 1147.98C1428.38 1100.1 1440.14 1049.8 1466.86 1007.41C1479.85 986.801 1504.16 973.108 1527.73 966.959C1559.59 958.649 1594.27 959.067 1626.51 965.771C1666 973.984 1701.38 995.827 1738.82 1010.86C1738.82 995.251 1735.03 979.179 1738.82 964.043C1748.13 926.897 1755.72 887.308 1777.66 855.92C1809.03 811.032 1851.14 773.765 1894.86 740.786C1930.65 713.79 1974.09 698.834 2013.71 677.859C1957.35 667.157 1900.19 660.004 1844.62 645.754C1820.74 639.632 1797.89 629.243 1776.48 617.029C1758.69 606.881 1740.91 595.17 1728.03 579.244C1719.08 568.176 1715.14 553.239 1713.47 539.105C1710.66 515.269 1708.49 490.268 1714.81 467.115C1720.16 447.517 1736.42 432.706 1747.22 415.501C1704.41 432.306 1663 453.241 1618.79 465.914C1602.25 470.657 1582.83 474.268 1567.17 467.115C1532.88 451.441 1497.45 431.348 1475.72 400.531C1452.34 367.39 1450.92 323.306 1438.53 284.693C1430.33 299.113 1425.4 315.973 1413.93 327.952C1401.82 340.598 1386.06 349.946 1369.8 356.451C1336.66 369.706 1302.44 381.756 1267.1 386.694C1243.63 389.972 1216.98 392.216 1196.28 380.692C1168.81 365.4 1149.38 337.836 1132.13 311.553C1118.75 291.168 1111.45 266.989 1106.04 243.211C1102.51 227.681 1105.84 211.359 1105.73 195.433C1084.55 232.604 1072.02 276.29 1042.18 306.946C1020.93 328.767 989.154 339.017 959.444 345.701C941.13 349.821 921.333 344.391 903.642 338.115C881.469 330.249 860.394 318.479 841.86 303.988C823.049 289.281 806.868 271.042 792.997 251.607C780.322 233.846 772.977 212.831 762.966 193.444C746.603 233.207 737.349 276.707 713.876 312.734C700.704 332.952 679.11 348.454 656.493 356.865C629.291 366.982 598.043 373.494 569.934 366.268C526.118 355.005 489.655 324.53 449.515 303.661C453.073 322.159 460.525 340.32 460.189 359.155C459.769 382.73 455.862 406.741 447.285 428.705C437.69 453.274 423.492 476.329 406.541 496.537C398.187 506.497 385.649 512.885 373.29 516.917C350.06 524.495 325.671 528.8 301.323 530.861C276.562 532.957 251.519 531.776 226.791 529.317C200.84 526.737 174.793 523.005 149.733 515.786C121.987 507.794 70.9447 491.269 44.096 480.646" fill="none" opacity="1" stroke="#000000" stroke-linecap="round" stroke-linejoin="round" stroke-width="33.6839"/>
</g>
</svg>
